<?xml version="1.0" encoding="iso-8859-1"?>
<!-- Generator: Adobe Illustrator 19.0.0, SVG Export Plug-In . SVG Version: 6.00 Build 0)  -->
<svg version="1.1" id="Layer_1" xmlns="http://www.w3.org/2000/svg" xmlns:xlink="http://www.w3.org/1999/xlink" x="0px" y="0px"
	 viewBox="0 0 512 512" style="enable-background:new 0 0 512 512;" xml:space="preserve">
<g>
	<rect x="99.483" y="166.716" style="fill:#CCCCCC;" width="313.034" height="51.639"/>
	<circle style="fill:#CCCCCC;" cx="99.483" cy="256" r="89.284"/>
	<circle style="fill:#CCCCCC;" cx="412.517" cy="256" r="89.284"/>
	<path style="fill:#CCCCCC;" d="M282.261,218.352h-52.522v30.296c0,14.503,11.758,26.261,26.261,26.261l0,0
		c14.503,0,26.261-11.758,26.261-26.261V218.352z"/>
</g>
<g>
	<circle style="fill:#50A5DC;" cx="99.483" cy="256" r="53.576"/>
	<circle style="fill:#50A5DC;" cx="412.517" cy="256" r="53.576"/>
</g>
<path d="M412.514,156.514H99.486C44.63,156.514,0,201.144,0,256s44.63,99.486,99.486,99.486s99.486-44.63,99.486-99.486
	c0-9.518-1.346-18.727-3.853-27.449h24.421v20.096c0,20.104,16.355,36.46,36.46,36.46s36.46-16.356,36.46-36.46v-20.096h24.421
	c-2.507,8.722-3.853,17.931-3.853,27.449c0,54.856,44.63,99.486,99.486,99.486S512,310.856,512,256S467.37,156.514,412.514,156.514z
	 M99.486,335.088c-43.609,0-79.088-35.479-79.088-79.088s35.479-79.088,79.088-79.088s79.088,35.479,79.088,79.088
	S143.095,335.088,99.486,335.088z M272.062,248.647c0,8.857-7.205,16.062-16.062,16.062c-8.857,0-16.062-7.205-16.062-16.062
	v-20.096h32.123V248.647z M186.686,208.152c-6.718-12.195-15.921-22.836-26.921-31.24h192.47c-11,8.404-20.203,19.045-26.922,31.24
	H186.686z M412.514,335.088c-43.609,0-79.088-35.479-79.088-79.088s35.479-79.088,79.088-79.088s79.088,35.479,79.088,79.088
	S456.123,335.088,412.514,335.088z"/>
<path d="M99.486,192.228c-35.164,0-63.771,28.608-63.771,63.772s28.608,63.772,63.771,63.772s63.771-28.608,63.771-63.772
	S134.65,192.228,99.486,192.228z M99.486,299.373c-23.915,0-43.372-19.457-43.372-43.373c0-23.916,19.457-43.373,43.372-43.373
	s43.372,19.457,43.372,43.373C142.858,279.916,123.401,299.373,99.486,299.373z"/>
<path d="M412.514,192.228c-35.164,0-63.771,28.608-63.771,63.772s28.608,63.772,63.771,63.772s63.771-28.608,63.771-63.772
	S447.678,192.228,412.514,192.228z M412.514,299.373c-23.915,0-43.372-19.457-43.372-43.373c0-23.916,19.457-43.373,43.372-43.373
	c23.915,0,43.372,19.457,43.372,43.373C455.886,279.916,436.429,299.373,412.514,299.373z"/>
<path d="M310.623,182.775h-7.354c-5.632,0-10.199,4.566-10.199,10.199s4.567,10.199,10.199,10.199h7.354
	c5.632,0,10.199-4.566,10.199-10.199S316.255,182.775,310.623,182.775z"/>
<path d="M270.706,182.775h-69.329c-5.632,0-10.199,4.566-10.199,10.199s4.567,10.199,10.199,10.199h69.329
	c5.632,0,10.199-4.566,10.199-10.199S276.338,182.775,270.706,182.775z"/>
<g>
</g>
<g>
</g>
<g>
</g>
<g>
</g>
<g>
</g>
<g>
</g>
<g>
</g>
<g>
</g>
<g>
</g>
<g>
</g>
<g>
</g>
<g>
</g>
<g>
</g>
<g>
</g>
<g>
</g>
</svg>
